<svg width="26" height="26" viewBox="0 0 26 26" fill="none" xmlns="http://www.w3.org/2000/svg">
<path d="M7.16671 24.6667H3.66671C3.04787 24.6667 2.45438 24.4209 2.01679 23.9833C1.57921 23.5457 1.33337 22.9522 1.33337 22.3334V14.1667C1.33337 13.5479 1.57921 12.9544 2.01679 12.5168C2.45438 12.0792 3.04787 11.8334 3.66671 11.8334H7.16671M15.3334 9.50004V4.83337C15.3334 3.90512 14.9646 3.01488 14.3082 2.3585C13.6519 1.70212 12.7616 1.33337 11.8334 1.33337L7.16671 11.8334V24.6667H20.3267C20.8894 24.6731 21.4355 24.4758 21.8643 24.1114C22.293 23.7469 22.5757 23.2398 22.66 22.6834L24.27 12.1834C24.3208 11.849 24.2982 11.5075 24.2039 11.1827C24.1096 10.8578 23.9458 10.5574 23.7239 10.3021C23.5019 10.0469 23.2271 9.84296 22.9185 9.70446C22.6099 9.56596 22.2749 9.49621 21.9367 9.50004H15.3334Z" stroke="#555555" stroke-width="2" stroke-linecap="round" stroke-linejoin="round"/>
</svg>
