<svg width="18" height="16" viewBox="0 0 18 16" fill="none" xmlns="http://www.w3.org/2000/svg">
<path d="M17.75 4.675L16.5 0.924995C16.4566 0.795632 16.3719 0.684059 16.2591 0.607317C16.1462 0.530575 16.0113 0.492882 15.875 0.499995H2.12504C1.98875 0.492882 1.85387 0.530575 1.74102 0.607317C1.62816 0.684059 1.54353 0.795632 1.50004 0.924995L0.250039 4.675C0.241035 4.74136 0.241035 4.80863 0.250039 4.875V8.625C0.250039 8.79076 0.315887 8.94973 0.433098 9.06694C0.550308 9.18415 0.709279 9.25 0.87504 9.25H1.50004V15.5H2.75004V9.25H6.50004V15.5H16.5V9.25H17.125C17.2908 9.25 17.4498 9.18415 17.567 9.06694C17.6842 8.94973 17.75 8.79076 17.75 8.625V4.875C17.759 4.80863 17.759 4.74136 17.75 4.675ZM15.25 14.25H7.75004V9.25H15.25V14.25ZM16.5 8H14V5.5H12.75V8H9.62504V5.5H8.37504V8H5.25004V5.5H4.00004V8H1.50004V4.975L2.57504 1.75H15.425L16.5 4.975V8Z" fill="#111111"/>
</svg>
